<?xml version="1.0" encoding="UTF-8"?>
<svg width="108" height="24" viewBox="0 0 108 24" xmlns="http://www.w3.org/2000/svg">
    <path d="M11.4 24H0V12.6h11.4V24zM24 24H12.6V12.6H24V24zM11.4 11.4H0V0h11.4v11.4zM24 11.4H12.6V0H24v11.4z" fill="#F25022"/>
    <path d="M44.3 24h-8.5V4.3h8.1c3.7 0 6.6 2.5 6.6 6.1 0 2.4-1.4 4.3-3.2 5.2 2.2.7 3.7 2.8 3.7 5.2 0 3.7-3 6.2-6.7 6.2zm-5.1-16.7v5.8h4.9c1.8 0 3.2-1.4 3.2-3.2s-1.4-3.2-3.2-3.2h-4.9v.6zm0 13.7h5.1c1.8 0 3.2-1.4 3.2-3.2s-1.4-3.2-3.2-3.2h-5.1v6.4zM63.5 24h-3.4v-2.2c-1 1.4-2.8 2.4-4.9 2.4-3.1 0-5.6-2.4-5.6-5.6 0-3.1 2.5-5.6 5.6-5.6 2 0 3.8 1 4.9 2.4V4.3h3.4V24zm-3.4-5.4c0-1.8-1.4-3.2-3.2-3.2s-3.2 1.4-3.2 3.2 1.4 3.2 3.2 3.2 3.2-1.4 3.2-3.2zM73.8 24h-3.4v-2.2c-1 1.4-2.8 2.4-4.9 2.4-3.1 0-5.6-2.4-5.6-5.6 0-3.1 2.5-5.6 5.6-5.6 2 0 3.8 1 4.9 2.4v-2.2h3.4V24zm-3.4-5.4c0-1.8-1.4-3.2-3.2-3.2s-3.2 1.4-3.2 3.2 1.4 3.2 3.2 3.2 3.2-1.4 3.2-3.2zM84.1 24h-3.4v-2.2c-1 1.4-2.8 2.4-4.9 2.4-3.1 0-5.6-2.4-5.6-5.6 0-3.1 2.5-5.6 5.6-5.6 2 0 3.8 1 4.9 2.4v-2.2h3.4V24zm-3.4-5.4c0-1.8-1.4-3.2-3.2-3.2s-3.2 1.4-3.2 3.2 1.4 3.2 3.2 3.2 3.2-1.4 3.2-3.2zM108 24h-3.4v-2.2c-1 1.4-2.8 2.4-4.9 2.4-3.1 0-5.6-2.4-5.6-5.6 0-3.1 2.5-5.6 5.6-5.6 2 0 3.8 1 4.9 2.4v-2.2h3.4V24zm-3.4-5.4c0-1.8-1.4-3.2-3.2-3.2s-3.2 1.4-3.2 3.2 1.4 3.2 3.2 3.2 3.2-1.4 3.2-3.2z" fill="#737373"/>
</svg>
